<svg xmlns="http://www.w3.org/2000/svg" fill="none" viewBox="0 0 20 22"><path stroke="#EDEDEB" stroke-linecap="round" stroke-linejoin="round" d="M14.162 8V5a4 4 0 0 0-8 0v3M1.754 9.352l-.6 6.4c-.17 1.82-.255 2.73.047 3.432a3 3 0 0 0 1.32 1.45C3.192 21 4.106 21 5.934 21h8.457c1.828 0 2.742 0 3.414-.366a3 3 0 0 0 1.32-1.45c.301-.703.216-1.612.046-3.432l-.6-6.4c-.145-1.537-.217-2.305-.562-2.886a3 3 0 0 0-1.292-1.176C16.107 5 15.335 5 13.791 5H6.534c-1.544 0-2.316 0-2.926.29a3 3 0 0 0-1.292 1.176c-.345.581-.417 1.35-.562 2.886Z"/></svg>