<svg xmlns="http://www.w3.org/2000/svg" fill="none" viewBox="0 0 125 125"><path fill="#ededeb" d="m56.114 5.039-.356-3.382.686-.072.355 3.382-.685.072ZM68.2 120.033l.355 3.382.686-.072-.355-3.382-.686.072ZM50.817 5.878l-.706-3.326-.675.143.707 3.327.674-.144Zm23.366 113.244.707 3.326.675-.143-.708-3.326-.674.143ZM44.963 7.41 43.91 4.176l-.656.213 1.051 3.234.656-.213ZM80.036 117.59l1.051 3.234.655-.213-1.05-3.235-.656.214ZM39.3 9.545l-1.383-3.107-.63.28 1.383 3.106.63-.28Zm46.4 105.911 1.383 3.107.63-.281-1.383-3.106-.63.28Zm-56.903-99.93-2-2.752-.557.405 2 2.752.557-.405Zm67.406 93.95 1.999 2.75.558-.405-2-2.751-.557.406ZM24.07 19.306l-2.276-2.528-.512.462 2.276 2.527.512-.462Zm76.857 86.389 2.276 2.527.512-.461-2.275-2.528-.513.462ZM19.767 23.559l-2.528-2.275-.461.511 2.527 2.276.462-.512Zm85.466 77.883 2.527 2.275.462-.512-2.528-2.276-.461.513ZM15.93 28.239l-2.75-1.999-.406.558 2.751 1.998.405-.557ZM109.07 96.76l2.751 2 .405-.558-2.751-2-.405.558ZM9.825 38.671l-3.107-1.384-.28.63L9.545 39.3l.28-.63Zm105.35 47.66 3.106 1.383.281-.63-3.108-1.384-.279.63ZM7.623 44.307l-3.235-1.05-.213.654 3.235 1.052.213-.656Zm109.754 36.387 3.234 1.05.214-.655-3.235-1.05-.213.655ZM6.021 50.144l-3.326-.708-.143.674 3.326.708.143-.675ZM118.98 74.857l3.325.707.144-.674-3.327-.708-.142.674ZM5.039 56.114l-3.382-.355-.072.685 3.382.355.072-.685ZM119.96 68.886l3.383.355.071-.685-3.382-.356-.072.686ZM4.967 68.2l-3.382.356.072.685 3.382-.355-.072-.686Zm115.066-11.4 3.382-.355-.072-.686-3.383.356.073.685ZM5.878 74.183l-3.326.707.143.674 3.326-.707-.143-.674Zm113.244-23.365 3.326-.707-.144-.675-3.327.707.145.675ZM7.41 80.038l-3.234 1.05.213.655 3.234-1.051-.213-.654Zm110.18-35.075 3.235-1.052-.214-.655-3.234 1.051.213.656ZM9.544 85.7l-3.106 1.384.28.63 3.106-1.385-.28-.629Zm105.912-46.4 3.106-1.383-.28-.63-3.107 1.383.281.63ZM15.525 96.203l-2.751 2 .405.557 2.751-2-.405-.557Zm93.95-67.406 2.751-1.998-.406-.559-2.751 2 .406.557Zm-90.17 72.132-2.527 2.276.462.512 2.527-2.276-.462-.512Zm86.39-76.857 2.526-2.275-.461-.513-2.528 2.276.463.512Zm-82.136 81.162-2.276 2.527.512.461 2.275-2.527-.511-.461Zm77.883-85.467 2.274-2.527-.512-.462-2.276 2.528.514.46ZM28.239 109.07l-1.999 2.751.558.405 1.998-2.752-.557-.404ZM96.76 15.93l1.999-2.75-.558-.405-2 2.752.56.403Zm-58.09 99.245-1.384 3.107.63.28 1.382-3.107-.629-.28ZM86.33 9.825l1.382-3.106-.63-.28-1.384 3.107.632.279ZM44.307 117.378l-1.051 3.234.655.213 1.05-3.234-.654-.213ZM80.694 7.623l1.05-3.234-.655-.213-1.052 3.235.657.212ZM50.142 118.979l-.706 3.327.674.143.706-3.327-.674-.143ZM74.858 6.021l.706-3.326-.674-.143-.709 3.327.677.142Zm-18.745 113.94-.355 3.382.686.072.355-3.382-.686-.072ZM68.887 5.039l.355-3.381-.687-.072-.355 3.382.687.071ZM61.81 116.637V125h1.38v-8.363h-1.38ZM63.19 8.363V0h-1.38v8.363h1.38Zm26.425 102.481 2.895 5.015 1.195-.69-2.896-5.014-1.194.689Zm-54.23-96.687L32.49 9.142l-1.195.69 2.896 5.015 1.194-.69Zm74.769 76.652 5.014 2.895.689-1.194-5.015-2.896-.688 1.195ZM14.847 34.191l-5.015-2.895-.69 1.194 5.015 2.895.69-1.194Zm101.79 28.999H125v-1.38h-8.363v1.38ZM8.363 61.81H0v1.38h8.363v-1.38Zm102.48-26.424 5.015-2.896-.69-1.194-5.014 2.895.689 1.195ZM14.158 89.615 9.142 92.51l.69 1.194 5.014-2.895-.688-1.195Zm76.65-74.768 2.896-5.015-1.194-.69-2.895 5.015 1.194.69Zm-56.617 95.307-2.895 5.015 1.194.689 2.895-5.015-1.194-.689Z" opacity=".2"/></svg>
