<svg xmlns="http://www.w3.org/2000/svg" viewBox="0 0 25 25" fill="none"><path d="M24.3882 8.63729C25.2039 11.1478 25.2039 13.8522 24.3882 16.3627C23.5725 18.8732 21.9829 21.0611 19.8473 22.6127C17.7117 24.1643 15.1398 25 12.5 25C9.86029 25 7.28831 24.1643 5.15271 22.6127C3.01711 21.0611 1.42754 18.8733 0.611806 16.3627C-0.203926 13.8522 -0.203936 11.1479 0.611779 8.63733C1.42749 6.12679 3.01705 3.93893 5.15264 2.38732C7.28823 0.835712 9.8602 1.3353e-05 12.4999 0L12.4999 1.875C10.2562 1.87501 8.06999 2.58535 6.25474 3.90422C4.4395 5.22309 3.08837 7.08277 2.39501 9.21673C1.70165 11.3507 1.70166 13.6494 2.39503 15.7833C3.08841 17.9173 4.43955 19.777 6.2548 21.0958C8.07006 22.4147 10.2562 23.125 12.5 23.125C14.7438 23.125 16.93 22.4147 18.7452 21.0958C20.5605 19.7769 21.9116 17.9173 22.605 15.7833C23.2983 13.6493 23.2983 11.3507 22.605 9.21669L24.3882 8.63729Z" fill="#202020"/><path d="M12.4999 0C15.1397 3.14786e-08 17.7117 0.835687 19.8473 2.38729C21.9829 3.93889 23.5725 6.12675 24.3882 8.63729L22.605 9.21669C21.9116 7.08273 20.5605 5.22306 18.7452 3.90419C16.93 2.58533 14.7437 1.875 12.4999 1.875L12.4999 0Z" fill="#F14D4D"/></svg>
