<svg xmlns="http://www.w3.org/2000/svg" width="53" height="82" fill="none" viewBox="0 0 53 82"><path fill="#FDD8AF" d="M26.5 0C11.864 0 0 11.729 0 26.2c0 6.24 2.22 11.96 5.907 16.458 1.189 1.448 3.177 3.727 4.214 5.285 5.969 8.965 13.626 21.984 15.857 32.669.383 1.825.845 1.856 1.342.06 1.591-5.762 5.72-18.35 14.244-31.521 1.017-1.571 3.078-3.77 4.357-5.138a26.418 26.418 0 0 0 4.568-6.733C52.086 33.902 53 30.161 53 26.202 53 11.73 41.136 0 26.5 0Zm0 40.355c-8.17 0-14.792-6.548-14.792-14.624S18.331 11.108 26.5 11.108c8.17 0 14.792 6.548 14.792 14.623 0 8.077-6.623 14.623-14.792 14.623Z"/><path fill="#FDD8AF" d="M26.5 31.296c3.398 0 6.152-2.723 6.152-6.082 0-3.36-2.754-6.082-6.152-6.082-3.397 0-6.151 2.723-6.151 6.082s2.754 6.082 6.151 6.082Z"/></svg>
