<svg viewBox="0 0 74 87" fill="none" xmlns="http://www.w3.org/2000/svg" class="test">
<path d="M28.5071 5.06574L27.6683 2.79994L28.122 2.62885L28.9608 4.89465L28.5071 5.06574ZM25.0517 6.58381L23.9837 4.41905L23.5501 4.63722L24.6182 6.80238L25.0517 6.58381ZM21.3384 8.67742L20.0527 6.63708L19.644 6.90019L20.9298 8.94093L21.3384 8.67742ZM17.8631 11.1525L16.3737 9.25843L15.9946 9.56317L17.484 11.4568L17.8631 11.1525ZM11.7728 17.135L9.92704 15.5951L9.61928 15.9731L11.465 17.513L11.7728 17.135ZM9.22481 20.5765L7.23042 19.2404L6.96368 19.6489L8.95807 20.9851L9.22481 20.5765ZM7.04725 24.2697L4.92588 23.1512L4.70229 23.5855L6.82327 24.7041L7.04725 24.2697ZM5.26305 28.1729L3.03859 27.285L2.86128 27.7408L5.08575 28.6287L5.26305 28.1729ZM2.95062 36.4396L0.592846 36.0382L0.5134 36.5217L2.87107 36.9227L2.95062 36.4396ZM2.44726 40.7117L0.0611926 40.5622L0.0319296 41.0513L2.4181 41.2011L2.44726 40.7117ZM2.38799 45.0146L0 45.1183L0.0216644 45.6077L2.40976 45.5044L2.38799 45.0146ZM2.77359 49.3006L0.409817 49.6561L0.481868 50.1404L2.84563 49.7849L2.77359 49.3006ZM4.85819 57.6358L2.62002 58.4813L2.78975 58.9401L5.02803 58.0951L4.85819 57.6358ZM6.53381 61.5938L4.39587 62.6712L4.6121 63.1099L6.75044 62.0324L6.53381 61.5938ZM8.60947 65.3534L6.59475 66.6509L6.85527 67.064L8.87028 65.766L8.60947 65.3534ZM11.0612 68.8737L9.19192 70.3779L9.49364 70.7615L11.3629 69.2573L11.0612 68.8737ZM16.9843 75.0445L15.4656 76.9097L15.8397 77.2216L17.3584 75.3564L16.9843 75.0445ZM69.0055 11.9547L70.5245 10.0904L70.1499 9.77809L68.6306 11.643L69.0055 11.9547ZM20.3905 77.6277L19.0729 79.6432L19.4773 79.9141L20.7949 77.8986L20.3905 77.6277ZM65.5995 9.37194L66.9167 7.35687L66.5123 7.08596L65.1944 9.10163L65.5995 9.37194ZM24.0442 79.8371L22.9423 81.981L23.372 82.2079L24.4737 80.0636L24.0442 79.8371ZM61.9462 7.1624L63.0476 5.01862L62.6172 4.79194L61.515 6.93632L61.9462 7.1624ZM27.9054 81.6479L27.0314 83.897L27.4822 84.0771L28.3561 81.8276L27.9054 81.6479ZM58.0844 5.3513L58.9586 3.10266L58.5073 2.92265L57.6327 5.1727L58.0844 5.3513ZM36.0804 84.0006L35.6877 86.3852L36.1655 86.4669L36.5576 84.082L36.0804 84.0006ZM49.9103 2.9984L50.3022 0.614415L49.8242 0.533264L49.4313 2.91836L49.9103 2.9984ZM40.304 84.5171L40.16 86.9308L40.6435 86.9612L40.787 84.5476L40.304 84.5171ZM45.6864 2.48242L45.83 0.0692014L45.3465 0.0388111L45.2023 2.45303L45.6864 2.48242ZM44.5569 84.584L44.6636 87L45.1473 86.9789L45.0406 84.5629L44.5569 84.584ZM41.433 2.41557L41.3265 0L40.8424 0.0212368L40.9479 2.43751L41.433 2.41557ZM48.7926 84.2004L49.1482 86.5923L49.6272 86.52L49.2717 84.1282L48.7926 84.2004ZM37.1972 2.79881L36.8419 0.407738L36.3623 0.479665L36.7176 2.87203L37.1972 2.79881ZM52.0821 80.9006L53.5583 86.6591L54.4965 86.4143L53.0203 80.6559L52.0821 80.9006ZM33.9078 6.09857L32.4316 0.340146L31.4934 0.584892L32.9695 6.34332L33.9078 6.09857ZM16.0135 15.0234L13.1586 12.0842L12.4677 12.7709L15.3227 15.7101L16.0135 15.0234ZM5.57645 32.4641L1.65363 31.3605L1.39525 32.3048L5.31806 33.4084L5.57645 32.4641ZM6.04039 52.6334L0.350858 54.1176L0.594279 55.0672L6.28381 53.583L6.04039 52.6334ZM71.0993 16.2489L74 13.3653L73.3201 12.6653L70.4198 15.5488L71.0993 16.2489ZM14.891 70.7506L11.99 73.6347L12.67 74.3347L15.5707 71.4511L14.891 70.7506ZM53.8433 5.66149L54.9279 1.69459L53.9936 1.43177L52.909 5.39868L53.8433 5.66149ZM32.1466 81.3381L31.062 85.305L31.9959 85.5679L33.0804 81.6006L32.1466 81.3381Z" fill="currentColor"/>
</svg>
