<svg xmlns="http://www.w3.org/2000/svg" fill="none" viewBox="0 0 134 72"><path fill="url(#a)" fill-rule="evenodd" d="M18.714 64.818c3.05.017 6.099-.223 9.148-1.045-3.975-3.7-6.168-8.824-7.37-14.74-.61-2.494-.102-4.51 2.882-5.468l6.9-1.398-7.227-1.672c-2.243-.847-3.27-2.421-2.691-4.953 1.917-11.069 11.478-23.83 27.838-27.437 2.593-.362 4.013 1.007 4.405 2.89l1.751 7.526 1.411-7.292c.575-2.744 2.614-3.763 5.567-2.822 15.563 3.514 26.354 16.441 27.114 31.322 2.504-.505 5.022-.761 7.561-.646C95.29 22.061 80.288-.31 53.735.003 15.302 2.785 3.41 39.636 18.715 64.819Z" clip-rule="evenodd"/><path fill="url(#b)" fill-rule="evenodd" d="M18.724 64.818C3.42 39.634 15.311 2.784 53.744.003 80.299-.31 95.3 22.061 96.014 39.083l-3.185.076-.198-2.152C90.488 21.81 76.961 3.699 54.118 3.97 18.848 6.534 7.936 40.509 21.98 63.728l.695 1.025-3.95.065ZM29.96 42.233l-4.003-.931-.445-.24 4.773 1.105-.325.066Z" clip-rule="evenodd"/><path fill="url(#c)" fill-opacity=".5" fill-rule="evenodd" d="M18.61 64.766c12.228-.222 23.741-5.034 35.23-10.611 15.576-7.161 30.928-15.646 41.345-15.21 13.434.313 15.995 9.356 15.002 15.994-2.091 10.506-9.999 11.968-17.668 10.506 7.719-.748 12.534-3.775 13.225-10.036.619-11.238-10.088-12.962-21.43-8.05-18.138 8.573-35.005 18.77-54.048 23.104C10.708 75.33 2.25 67.745.211 57.239-1.23 46.54 4.915 41.349 12.338 39.1l.104 6.69C1.988 50.706 7.111 64.035 18.61 64.767Z" clip-rule="evenodd"/><path fill="#202020" fill-rule="evenodd" d="M21.014 46.21v2.352h13.172V46.21H21.014Z" clip-rule="evenodd"/><path fill="#202020" fill-rule="evenodd" d="M27.626 47.126h-2.352v18.356h2.352V47.126ZM34.173 46.226h-2.352v19.256h2.352V46.226ZM53.88 46.226h-2.353v19.256h2.352V46.226Z" clip-rule="evenodd"/><path fill="#202020" fill-rule="evenodd" d="M50.573 46.21v2.352h9.89V46.21h-9.89ZM51.86 63.146v2.352h8.603v-2.352H51.86ZM51.86 54.182v2.352h7.662v-2.352H51.86Z" clip-rule="evenodd"/><path fill="#202020" fill-rule="evenodd" d="M38.591 46.224h2.561c1.716 4.408 3.31 8.816 4.678 13.224 1.403-4.4 2.902-8.799 4.73-13.198l1.072 1.751a244.748 244.748 0 0 0-4.678 14.793h-2.13A148.02 148.02 0 0 0 40.656 50.3c-.436 4.77-.516 9.964-.575 15.184h-2.457c.178-6.449.432-12.883.967-19.261ZM52.546 42.028a1.687 1.687 0 0 1 3.372 0 1.687 1.687 0 0 1-3.372 0Z" clip-rule="evenodd"/><path fill="#202020" fill-rule="evenodd" d="m55.004 40.892 5.84-9.736L77.257 19.03 65.235 35.443l-10.611 6.272.314-.627.066-.196ZM53.578 40.721l-2.665-5.697-9.618-5.855 5.959 9.618 6.272 3.084.052-1.15ZM69.05 52.796v9.632c.758 4.954-.627 7.385-5.683 5.488l-.444 2.117c6.377 1.672 8.52-.044 8.52-7.083V51.241l-2.392 1.555Z" clip-rule="evenodd"/><path fill="#202020" fill-rule="evenodd" d="M71.423 51.262c-5.73-1.876-9.57.774-9.441 6.383.212 7.3 3.36 8.01 7.344 6.847l-.085-2.188c-2.55 1.261-4.965.98-4.94-4.743.078-3.702 1.582-5.434 4.822-4.77l1.856-.732.444-.797ZM80.306 65.737c-2.992.01-5.015-2.16-5.31-6.864-.417-5.75 1.974-8.207 4.81-8.233 4.055 0 4.637 3.703 4.444 8.285h-6.9c-.053 4.652 2.621 5.867 5.723 4.077l.522 2.013c-1.185.474-2.29.72-3.288.722Zm1.565-8.772c.106-2.804-.42-4.6-2.117-4.534-1.558.118-2.21 1.886-2.379 4.534h4.496ZM90.077 65.511h-2.326V51.32c2.975-.625 5.878-1.146 7.265.497 4.156-2.535 7.789-.628 7.867 3.136V65.51h-2.378v-9.983c-.026-3.084-2.784-3.44-4.417-2.065a4.76 4.76 0 0 1 .47 2.17v9.88h-2.435v-9.777c-.021-2.508-1.47-3.495-4.124-2.665l.078 12.44ZM109.053 65.511h-2.326V51.32c2.975-.625 5.877-1.146 7.265.497 4.156-2.535 7.788-.628 7.867 3.136V65.51h-2.379v-9.983c-.026-3.084-2.783-3.44-4.416-2.065.335.688.478 1.413.47 2.17v9.88h-2.435v-9.777c-.022-2.508-1.47-3.495-4.125-2.665l.079 12.44ZM129.976 65.688c-2.961.034-4.705-1.26-4.774-4.384 0-3.605 2.431-5.097 6.586-4.335v-1.363c0-2.718-1.986-3.476-4.756-2.274l-.628-2.117c5.044-1.777 7.839.33 7.579 4.572v9.28c-1.504.39-2.849.608-4.007.621Zm.51-1.96a8.317 8.317 0 0 0 1.276-.112v-4.69c-2.195-.419-4.286-.314-4.286 2.142.153 1.95 1.292 2.667 3.01 2.66Z" clip-rule="evenodd"/><defs><linearGradient id="a" x1="19.805" x2="111.277" y1="70.927" y2="3.499" gradientUnits="userSpaceOnUse"><stop stop-color="#942627"/><stop offset="1" stop-color="#CC3F3C"/></linearGradient><linearGradient id="b" x1="11.966" x2="47.248" y1="81.119" y2="14.476" gradientUnits="userSpaceOnUse"><stop stop-color="#8D1F20"/><stop offset="1" stop-color="#E5403D"/></linearGradient><linearGradient id="c" x1="-24.885" x2="113.63" y1="84.778" y2="7.419" gradientUnits="userSpaceOnUse"><stop stop-color="#202020"/><stop offset="1" stop-color="#CCC"/></linearGradient></defs></svg>
