<svg version="1.1" xmlns="http://www.w3.org/2000/svg">
	<symbol fill="none" viewBox="0 0 83 76" id="icon-arrow-dial">
		<path fill="#f14d4d" d="M51.095 38.354a.5.5 0 0 0 0-.707l-3.182-3.182a.5.5 0 1 0-.707.707L50.034 38l-2.828 2.828a.5.5 0 0 0 .707.707l3.182-3.181ZM.483 38.5h50.259v-1H.483v1Z"/>
		<path fill="currentColor" d="M45.17.441v5.564a.441.441 0 0 1-.44.441h-.286a.441.441 0 0 1-.442-.441V.44c0-.243.198-.441.442-.441H44.73c.243 0 .44.198.44.441Zm-.44 69.113h-.286a.442.442 0 0 0-.442.441v5.564c0 .243.198.441.442.441H44.73a.441.441 0 0 0 .441-.441v-5.564a.442.442 0 0 0-.442-.441Zm-16.658-58.97a.442.442 0 0 0 .603.16l.247-.142a.441.441 0 0 0 .162-.603L26.3 5.181a.442.442 0 0 0-.603-.161l-.107.061-.017.01-.123.071a.441.441 0 0 0-.162.603l2.784 4.819Zm33.03 54.832a.442.442 0 0 0-.604-.16l-.247.142a.441.441 0 0 0-.162.603l2.784 4.818a.442.442 0 0 0 .604.161l.123-.071.017-.01.107-.061a.441.441 0 0 0 .161-.603l-2.784-4.819Zm-49.357-45.69 4.822 2.782c.21.122.48.05.603-.161l.142-.247a.441.441 0 0 0-.161-.603l-4.822-2.782a.442.442 0 0 0-.603.162l-.061.106-.02.034-.061.107a.441.441 0 0 0 .161.602Zm65.683 36.548-4.821-2.782a.442.442 0 0 0-.603.161l-.143.247a.441.441 0 0 0 .161.603l4.822 2.782c.211.122.481.05.603-.162l.08-.139.002-.001.061-.106a.441.441 0 0 0-.162-.603Zm4.743-18.858h-5.567a.441.441 0 0 0-.442.442v.285c0 .243.198.44.442.44h5.567a.442.442 0 0 0 .442-.44V37.856a.441.441 0 0 0-.442-.44ZM17.312 53.9l-.142-.246a.442.442 0 0 0-.604-.162l-4.82 2.782a.441.441 0 0 0-.162.603l.142.247a.442.442 0 0 0 .603.161l4.822-2.782a.441.441 0 0 0 .162-.603Zm54.549-31.8.142.246a.442.442 0 0 0 .604.162l4.821-2.782a.441.441 0 0 0 .162-.603l-.062-.106-.019-.033-.062-.108a.442.442 0 0 0-.603-.161l-4.822 2.782a.441.441 0 0 0-.161.603ZM28.922 65.398l-.247-.143a.442.442 0 0 0-.603.162l-2.784 4.818a.441.441 0 0 0 .162.602l.106.062.017.01.124.07c.211.123.481.05.603-.16L29.084 66a.44.44 0 0 0-.162-.602Zm31.329-54.795.247.142c.211.122.481.05.603-.161l2.784-4.818a.441.441 0 0 0-.161-.603l-.124-.071-.017-.01-.106-.061a.442.442 0 0 0-.604.161L60.09 10a.44.44 0 0 0 .162.603ZM41.292.143l-.04.004a.352.352 0 0 0-.32.381l.3 3.419a.352.352 0 0 0 .382.32l.039-.004a.352.352 0 0 0 .32-.381l-.3-3.419a.352.352 0 0 0-.38-.32Zm6.268 71.59-.04.004a.352.352 0 0 0-.32.381l.3 3.419a.352.352 0 0 0 .381.32l.04-.004a.352.352 0 0 0 .32-.381l-.3-3.419a.352.352 0 0 0-.381-.32ZM38.003.574l-.039.007a.352.352 0 0 0-.286.408l.596 3.38c.034.191.217.319.409.285l.038-.007a.352.352 0 0 0 .287-.408L38.41.86a.352.352 0 0 0-.408-.285ZM50.49 71.346l-.04.007a.352.352 0 0 0-.285.408l.596 3.38c.034.191.216.32.408.285l.04-.007a.352.352 0 0 0 .285-.408l-.596-3.38a.352.352 0 0 0-.408-.285ZM35.195 1.54a.353.353 0 0 0-.431-.249l-.039.01a.352.352 0 0 0-.249.432l.889 3.315c.05.187.243.299.432.249l.038-.01c.188-.051.3-.244.25-.432l-.89-3.315Zm18.613 69.415a.353.353 0 0 0-.432-.249l-.038.01a.352.352 0 0 0-.249.432l.889 3.314c.05.188.243.3.432.25l.038-.01c.188-.051.3-.244.25-.432l-.89-3.315ZM32.051 2.496a.352.352 0 0 0-.452-.21l-.037.013a.352.352 0 0 0-.21.451l1.174 3.225a.353.353 0 0 0 .452.21l.037-.013a.352.352 0 0 0 .21-.452l-1.174-3.224Zm24.596 67.53a.352.352 0 0 0-.452-.211l-.037.013a.352.352 0 0 0-.21.452l1.174 3.224a.352.352 0 0 0 .452.21l.037-.013a.352.352 0 0 0 .21-.451l-1.174-3.225ZM29.002 3.722a.352.352 0 0 0-.468-.17l-.036.016a.352.352 0 0 0-.17.468l1.451 3.11a.352.352 0 0 0 .468.17l.036-.016a.352.352 0 0 0 .17-.468l-1.45-3.11Zm30.393 65.13a.353.353 0 0 0-.469-.17l-.036.016a.352.352 0 0 0-.17.468l1.451 3.11a.353.353 0 0 0 .468.17l.036-.016a.352.352 0 0 0 .17-.468l-1.45-3.11ZM24.642 10.185c.112.16.332.198.491.087l.033-.023a.352.352 0 0 0 .086-.49l-1.97-2.812a.353.353 0 0 0-.49-.086l-.033.022a.352.352 0 0 0-.086.491l1.97 2.811Zm39.889 55.63a.353.353 0 0 0-.491-.087l-.033.023a.352.352 0 0 0-.086.49l1.97 2.812c.111.16.331.198.49.086l.033-.022a.352.352 0 0 0 .087-.491l-1.97-2.811ZM22.292 12.028a.353.353 0 0 0 .497.044l.03-.026a.352.352 0 0 0 .044-.496l-2.208-2.629a.353.353 0 0 0-.496-.043l-.03.025a.352.352 0 0 0-.044.496l2.207 2.63Zm44.589 51.944a.353.353 0 0 0-.497-.043l-.03.025a.352.352 0 0 0-.043.496l2.207 2.63a.353.353 0 0 0 .496.043l.03-.026a.352.352 0 0 0 .044-.496l-2.207-2.629ZM20.112 14.07a.353.353 0 0 0 .499 0l.027-.028a.352.352 0 0 0 0-.498l-2.428-2.427a.353.353 0 0 0-.498 0l-.028.028a.352.352 0 0 0 0 .498l2.428 2.427Zm48.95 47.862a.353.353 0 0 0-.5 0l-.027.028a.352.352 0 0 0 0 .498l2.428 2.427a.353.353 0 0 0 .498 0l.028-.028a.352.352 0 0 0 0-.498l-2.428-2.427Zm-50.944-45.64a.353.353 0 0 0 .497-.043l.025-.03a.352.352 0 0 0-.044-.496l-2.63-2.206a.353.353 0 0 0-.497.043l-.025.03a.352.352 0 0 0 .043.497l2.631 2.205ZM71.055 59.71a.353.353 0 0 0-.496.043l-.026.03a.352.352 0 0 0 .044.497l2.63 2.205c.15.125.372.106.497-.043l.025-.03a.352.352 0 0 0-.043-.496l-2.63-2.206Zm-54.73-41.03c.16.112.38.073.491-.086l.023-.032a.352.352 0 0 0-.087-.491l-2.813-1.968a.353.353 0 0 0-.49.086l-.023.032a.352.352 0 0 0 .086.491l2.813 1.968Zm56.523 38.642a.353.353 0 0 0-.491.086l-.023.033a.352.352 0 0 0 .087.49l2.813 1.969c.16.111.379.073.49-.087l.023-.032a.352.352 0 0 0-.086-.49l-2.813-1.97ZM10.285 22.427l3.113 1.45a.352.352 0 0 0 .468-.17l.017-.036a.352.352 0 0 0-.17-.468l-3.113-1.45a.352.352 0 0 0-.469.17l-.016.036a.352.352 0 0 0 .17.468Zm68.603 31.147-3.112-1.45a.352.352 0 0 0-.468.17l-.017.036a.352.352 0 0 0 .17.468l3.113 1.45a.352.352 0 0 0 .468-.17l.017-.036a.352.352 0 0 0-.17-.468Zm-69.83-28.1 3.226 1.173a.352.352 0 0 0 .452-.21l.014-.038a.352.352 0 0 0-.211-.451l-3.227-1.174a.352.352 0 0 0-.452.21l-.013.038a.352.352 0 0 0 .21.451Zm71.058 25.053-3.227-1.174a.352.352 0 0 0-.452.21l-.013.038a.352.352 0 0 0 .21.451l3.227 1.174a.352.352 0 0 0 .452-.21l.013-.038a.352.352 0 0 0-.21-.451Zm.957-3.142-3.317-.889a.353.353 0 0 0-.432.25l-.01.038a.352.352 0 0 0 .25.431l3.316.888a.353.353 0 0 0 .432-.248l.01-.039a.352.352 0 0 0-.249-.431Zm.68-3.214-3.382-.596a.352.352 0 0 0-.408.286l-.007.039a.352.352 0 0 0 .286.408l3.382.596a.352.352 0 0 0 .408-.286l.007-.039a.352.352 0 0 0-.286-.408Zm.397-3.26-3.421-.3a.353.353 0 0 0-.382.32l-.004.04a.352.352 0 0 0 .32.382l3.422.299a.352.352 0 0 0 .381-.32l.004-.04a.352.352 0 0 0-.32-.381Zm-3.807-5.882.004.04a.353.353 0 0 0 .382.32l3.42-.3a.352.352 0 0 0 .32-.381l-.003-.04a.352.352 0 0 0-.381-.32l-3.421.3a.352.352 0 0 0-.32.381Zm-.387-2.929.007.039c.034.192.216.32.408.286l3.382-.596a.352.352 0 0 0 .286-.408l-.007-.039a.352.352 0 0 0-.408-.286l-3.382.596a.352.352 0 0 0-.286.408ZM11.859 46.784l-.01-.039a.352.352 0 0 0-.432-.248l-3.317.888a.352.352 0 0 0-.249.431l.01.038c.05.188.244.3.432.25l3.317-.889c.188-.05.3-.243.249-.431Zm65.455-17.568.01.039c.05.187.244.299.432.248l3.317-.888c.188-.05.3-.243.25-.431l-.01-.039a.352.352 0 0 0-.433-.248l-3.317.888a.353.353 0 0 0-.249.431ZM12.75 49.601l-.014-.038a.353.353 0 0 0-.452-.21l-3.227 1.174a.352.352 0 0 0-.21.451l.013.037a.353.353 0 0 0 .452.21l3.227-1.173a.352.352 0 0 0 .21-.451Zm63.674-23.202.013.037a.353.353 0 0 0 .452.21l3.227-1.173a.352.352 0 0 0 .21-.451l-.013-.037a.353.353 0 0 0-.452-.21l-3.227 1.173a.352.352 0 0 0-.21.451ZM13.883 52.33l-.017-.035a.352.352 0 0 0-.468-.17l-3.113 1.45a.352.352 0 0 0-.17.468l.016.035a.352.352 0 0 0 .469.171l3.112-1.45a.352.352 0 0 0 .17-.468ZM75.29 23.672l.017.036a.352.352 0 0 0 .468.17l3.112-1.45a.352.352 0 0 0 .17-.468l-.016-.036a.352.352 0 0 0-.468-.17l-3.112 1.45a.352.352 0 0 0-.171.468ZM16.839 57.44l-.023-.033a.352.352 0 0 0-.49-.086l-2.814 1.968a.352.352 0 0 0-.086.491l.022.032c.112.16.332.198.491.087l2.813-1.969a.352.352 0 0 0 .087-.49Zm55.495-38.88.023.033c.111.159.331.198.49.086l2.814-1.968a.352.352 0 0 0 .086-.491l-.022-.032a.352.352 0 0 0-.491-.087L72.42 18.07a.352.352 0 0 0-.087.49ZM18.64 59.782l-.025-.03a.353.353 0 0 0-.497-.043l-2.63 2.206a.352.352 0 0 0-.044.496l.026.03a.353.353 0 0 0 .496.043l2.63-2.205a.352.352 0 0 0 .044-.497Zm51.893-43.564.026.03a.353.353 0 0 0 .496.043l2.63-2.206a.352.352 0 0 0 .044-.496l-.025-.03a.353.353 0 0 0-.497-.043l-2.63 2.205a.352.352 0 0 0-.044.497ZM20.638 61.959l-.027-.028a.353.353 0 0 0-.499 0l-2.428 2.427a.352.352 0 0 0 0 .498l.028.028a.353.353 0 0 0 .498 0l2.428-2.426a.352.352 0 0 0 0-.499Zm47.897-47.918.028.028a.353.353 0 0 0 .498 0l2.428-2.427a.352.352 0 0 0 0-.498l-.028-.028a.353.353 0 0 0-.498 0l-2.428 2.427a.352.352 0 0 0 0 .498ZM22.82 63.954l-.03-.025a.353.353 0 0 0-.497.043l-2.208 2.629a.352.352 0 0 0 .044.496l.03.026c.15.124.372.105.497-.044l2.207-2.629a.352.352 0 0 0-.043-.496Zm43.534-51.908.03.026c.15.125.372.105.497-.044L69.088 9.4a.352.352 0 0 0-.043-.496l-.03-.025a.353.353 0 0 0-.497.043l-2.207 2.63a.352.352 0 0 0 .043.495ZM25.166 65.751l-.032-.023a.353.353 0 0 0-.491.087l-1.97 2.81a.352.352 0 0 0 .087.492l.032.022c.16.112.38.073.49-.086l1.97-2.811a.352.352 0 0 0-.086-.491Zm38.841-55.502.033.023c.16.111.38.073.49-.087l1.97-2.81a.352.352 0 0 0-.086-.492l-.032-.022a.353.353 0 0 0-.491.086l-1.97 2.811a.352.352 0 0 0 .086.491ZM30.283 68.7l-.036-.016a.352.352 0 0 0-.468.17l-1.451 3.11a.352.352 0 0 0 .17.469l.036.016a.352.352 0 0 0 .468-.17l1.452-3.11a.352.352 0 0 0-.17-.468ZM58.89 7.302l.036.016a.352.352 0 0 0 .468-.17l1.452-3.11a.352.352 0 0 0-.17-.468l-.037-.017a.352.352 0 0 0-.468.17l-1.451 3.11a.352.352 0 0 0 .17.469ZM33.015 69.828l-.037-.013a.352.352 0 0 0-.452.21l-1.174 3.225a.352.352 0 0 0 .21.451l.037.014a.352.352 0 0 0 .452-.21l1.175-3.225a.352.352 0 0 0-.211-.452Zm24.596-67.53-.037-.013a.352.352 0 0 0-.452.21L55.948 5.72a.352.352 0 0 0 .21.452l.037.013a.352.352 0 0 0 .452-.21l1.175-3.225a.352.352 0 0 0-.211-.451ZM35.835 70.716l-.038-.01a.353.353 0 0 0-.432.25l-.889 3.314a.352.352 0 0 0 .25.431l.038.01a.353.353 0 0 0 .431-.249l.89-3.314a.352.352 0 0 0-.25-.432ZM54.448 1.3l-.039-.01a.353.353 0 0 0-.431.249l-.89 3.314c-.05.188.062.381.25.431l.038.01a.353.353 0 0 0 .432-.248l.889-3.315a.352.352 0 0 0-.25-.431ZM38.722 71.353l-.04-.007a.352.352 0 0 0-.407.285l-.597 3.38a.352.352 0 0 0 .286.408l.04.007a.352.352 0 0 0 .408-.286l.596-3.38a.353.353 0 0 0-.286-.407ZM51.209.58l-.038-.007a.352.352 0 0 0-.409.286l-.596 3.38a.352.352 0 0 0 .286.407l.039.007a.352.352 0 0 0 .408-.286l.596-3.38a.352.352 0 0 0-.285-.407Zm-9.556 71.156-.04-.004a.352.352 0 0 0-.381.32l-.3 3.419a.352.352 0 0 0 .32.382l.04.003a.352.352 0 0 0 .382-.32l.3-3.419a.352.352 0 0 0-.321-.381ZM47.92.147l-.04-.004a.352.352 0 0 0-.381.32l-.3 3.419a.352.352 0 0 0 .32.381l.04.004a.352.352 0 0 0 .382-.32l.3-3.419a.352.352 0 0 0-.321-.381Z"/>
	</symbol>
	<symbol viewBox="0 0 70 8" fill="none" id="icon-arrow-left">
		<path d="M0.646446 3.64644C0.451187 3.8417 0.451187 4.15829 0.646446 4.35355L3.82843 7.53553C4.02369 7.73079 4.34027 7.73079 4.53554 7.53553C4.7308 7.34027 4.7308 7.02368 4.53554 6.82842L1.70711 3.99999L4.53554 1.17157C4.7308 0.976305 4.7308 0.659723 4.53554 0.46446C4.34027 0.269198 4.02369 0.269198 3.82843 0.46446L0.646446 3.64644ZM70 3.5L1 3.49999L1 4.49999L70 4.5L70 3.5Z" fill="currentColor"/>
	</symbol>
	<symbol viewBox="0 0 69 8" fill="currentColor" id="icon-arrow-right">
		<path d="M68.3536 4.35355C68.5488 4.15829 68.5488 3.8417 68.3536 3.64644L65.1716 0.46446C64.9763 0.269198 64.6597 0.269198 64.4645 0.46446C64.2692 0.659723 64.2692 0.976305 64.4645 1.17157L67.2929 3.99999L64.4645 6.82842C64.2692 7.02368 64.2692 7.34027 64.4645 7.53553C64.6597 7.73079 64.9763 7.73079 65.1716 7.53553L68.3536 4.35355ZM4.37114e-08 4.5L68 4.49999L68 3.49999L-4.37114e-08 3.5L4.37114e-08 4.5Z"/>
	</symbol>
	<symbol viewBox="0 0 20 22" fill="none" id="icon-cart">
  		<path fill-rule="evenodd" clip-rule="evenodd" d="M8.97818 1.11844C9.45807 1.01846 9.95342 1.01846 10.4333 1.11844C11.7144 1.38534 12.7466 2.33227 13.1226 3.5857L13.155 3.69377C13.1887 3.80589 13.2057 3.92231 13.2057 4.03937V4.09822H6.20575V3.86285L6.28889 3.5857C6.66492 2.33227 7.69706 1.38534 8.97818 1.11844ZM5.20575 5.10155V8.45613C5.20575 8.73227 5.4296 8.95613 5.70575 8.95613C5.98189 8.95613 6.20575 8.73227 6.20575 8.45613V5.09822H13.2057V8.45613C13.2057 8.73227 13.4296 8.95613 13.7057 8.95613C13.9819 8.95613 14.2057 8.73227 14.2057 8.45613V5.09825C15.7072 5.10463 16.9737 6.22066 17.1677 7.71088L18.5983 18.6982C18.7541 19.8952 17.8221 20.9565 16.615 20.9565H3.32545C2.14712 20.9565 1.22417 19.9429 1.33419 18.7697L2.36127 7.8181C2.50139 6.32405 3.72116 5.1712 5.20575 5.10155ZM5.20575 4.10072V3.78946C5.20575 3.7408 5.21285 3.6924 5.22683 3.64579L5.33106 3.29836C5.8125 1.69355 7.13398 0.481178 8.77422 0.13946C9.38864 0.0114561 10.0228 0.0114561 10.6373 0.13946C12.2775 0.481178 13.599 1.69355 14.0804 3.29836L14.1128 3.40642C14.1744 3.61176 14.2057 3.82499 14.2057 4.03937V4.09824C16.2096 4.10463 17.9004 5.59337 18.1593 7.58177L19.5899 18.5691C19.8237 20.3646 18.4257 21.9565 16.615 21.9565H3.32545C1.55795 21.9565 0.173523 20.4361 0.338561 18.6763L1.36564 7.72472C1.55395 5.71675 3.20488 4.17101 5.20575 4.10072Z" fill="currentColor"/>
	</symbol>
	<symbol viewBox="0 0 54 54" fill="none" id="icon-dial">
		<path d="M27.4149 0.313572V4.26667C27.4149 4.43986 27.2745 4.58025 27.1013 4.58025H26.8987C26.7255 4.58025 26.5852 4.43986 26.5852 4.26667V0.313572C26.5852 0.140379 26.7255 0 26.8987 0H26.9861H27.0142H27.1015C27.2745 0 27.4149 0.140379 27.4149 0.313572ZM27.1013 49.4198H26.8987C26.7255 49.4198 26.5852 49.5601 26.5852 49.7333V53.6864C26.5852 53.8596 26.7255 54 26.8987 54H26.9861H27.0142H27.1015C27.2747 54 27.4151 53.8596 27.4151 53.6864V49.7333C27.4149 49.5601 27.2745 49.4198 27.1013 49.4198ZM15.2741 7.51984C15.3607 7.66984 15.5524 7.72116 15.7024 7.63456L15.8778 7.53316C16.0278 7.44657 16.0791 7.25487 15.9925 7.10487L14.0158 3.68146C13.9292 3.53146 13.7375 3.48015 13.5875 3.56674L13.512 3.61041L13.4999 3.61732L13.4121 3.66789C13.2621 3.75449 13.2108 3.94619 13.2974 4.09619L15.2741 7.51984ZM38.7259 46.4802C38.6394 46.3302 38.4476 46.2788 38.2976 46.3654L38.1222 46.4668C37.9722 46.5534 37.9209 46.7451 38.0075 46.8951L39.9842 50.3185C40.0708 50.4685 40.2625 50.5199 40.4125 50.4333L40.5003 50.3827L40.5124 50.3758L40.5879 50.3321C40.7379 50.2455 40.7892 50.0538 40.7026 49.9038L38.7259 46.4802ZM3.68146 14.0161L7.10487 15.9927C7.25487 16.0793 7.44657 16.028 7.53317 15.878L7.63456 15.7026C7.72116 15.5526 7.66984 15.3609 7.51984 15.2743L4.09644 13.2976C3.94644 13.211 3.75474 13.2624 3.66814 13.4124L3.62447 13.4878L3.61041 13.5123L3.56674 13.5878C3.48015 13.7378 3.53146 13.9295 3.68146 14.0161ZM50.3185 39.9839L46.8951 38.0073C46.7451 37.9207 46.5534 37.972 46.4668 38.122L46.3654 38.2974C46.2788 38.4474 46.3302 38.6391 46.4802 38.7257L49.9038 40.7024C50.0538 40.789 50.2455 40.7376 50.3321 40.5876L50.3893 40.4887L50.3898 40.4877L50.4335 40.4122C50.5199 40.2622 50.4685 40.0705 50.3185 39.9839ZM4.26667 27.4148C4.43986 27.4148 4.58024 27.2745 4.58024 27.1013V26.8987C4.58024 26.7255 4.43986 26.5852 4.26667 26.5852H0.313572C0.140379 26.5852 0 26.7255 0 26.8987V26.9861V27.0142V27.1015C0 27.2747 0.140379 27.4151 0.313572 27.4151H4.26667V27.4148ZM53.6864 26.5852H49.7333C49.5601 26.5852 49.4198 26.7255 49.4198 26.8987V27.1013C49.4198 27.2745 49.5601 27.4148 49.7333 27.4148H53.6864C53.8596 27.4148 54 27.2745 54 27.1013V27.0139V26.9858V26.8985C54 26.7255 53.8596 26.5852 53.6864 26.5852ZM7.63456 38.2976L7.53317 38.1222C7.44657 37.9722 7.25487 37.9209 7.10487 38.0075L3.68146 39.9842C3.53146 40.0708 3.48015 40.2625 3.56674 40.4125L3.66814 40.5879C3.75474 40.7379 3.94644 40.7892 4.09644 40.7026L7.51984 38.7259C7.66984 38.6393 7.72116 38.4476 7.63456 38.2976ZM46.3654 15.7024L46.4668 15.8778C46.5534 16.0278 46.7451 16.0791 46.8951 15.9925L50.3185 14.0158C50.4685 13.9292 50.5199 13.7375 50.4333 13.5875L50.3896 13.512L50.376 13.4886L50.3319 13.4121C50.2453 13.2621 50.0536 13.2108 49.9036 13.2974L46.4799 15.2741C46.3302 15.3607 46.2788 15.5526 46.3654 15.7024ZM15.878 46.4668L15.7026 46.3654C15.5526 46.2788 15.3609 46.3302 15.2743 46.4802L13.2976 49.9036C13.211 50.0536 13.2624 50.2453 13.4124 50.3319L13.4878 50.3755L13.4999 50.3824L13.5878 50.433C13.7378 50.5196 13.9295 50.4683 14.0161 50.3183L15.9927 46.8949C16.0793 46.7451 16.028 46.5534 15.878 46.4668ZM38.1222 7.53341L38.2976 7.63481C38.4476 7.7214 38.6394 7.67009 38.7259 7.52009L40.7026 4.09669C40.7892 3.94668 40.7379 3.75498 40.5879 3.66839L40.5001 3.61782L40.488 3.61091L40.4125 3.56724C40.2625 3.48064 40.0708 3.53196 39.9842 3.68196L38.0075 7.10536C37.9209 7.25512 37.9722 7.44681 38.1222 7.53341ZM24.6608 0.101649L24.6329 0.104113C24.4952 0.116202 24.3933 0.237585 24.4054 0.375251L24.6179 2.80415C24.6299 2.94182 24.7513 3.04371 24.889 3.03162L24.9169 3.02915C25.0545 3.01707 25.1564 2.89568 25.1443 2.75802L24.9319 0.329119C24.9198 0.191452 24.7985 0.08956 24.6608 0.101649ZM29.111 50.9684L29.0831 50.9709C28.9455 50.9829 28.8436 51.1043 28.8557 51.242L29.0681 53.6709C29.0802 53.8086 29.2016 53.9104 29.3392 53.8984L29.3671 53.8959C29.5048 53.8838 29.6067 53.7624 29.5946 53.6247L29.3821 51.1958C29.3703 51.0582 29.2487 50.9563 29.111 50.9684ZM22.3254 0.407819L22.2978 0.412752C22.1616 0.436683 22.0708 0.566455 22.0947 0.702641L22.5181 3.10391C22.542 3.2401 22.6718 3.33089 22.808 3.30695L22.8356 3.30202C22.9718 3.27809 23.0626 3.14832 23.0386 3.01213L22.6153 0.610864C22.5913 0.474678 22.4616 0.383888 22.3254 0.407819ZM31.192 50.6933L31.1644 50.6982C31.0282 50.7222 30.9374 50.8522 30.9614 50.9881L31.3847 53.3894C31.4087 53.5256 31.5384 53.6164 31.6746 53.5924L31.7022 53.5875C31.8384 53.5636 31.9292 53.4335 31.9053 53.2976L31.4819 50.8963C31.458 50.7602 31.3282 50.6691 31.192 50.6933ZM20.3319 1.09344C20.2962 0.959966 20.159 0.880772 20.0253 0.916546L19.9981 0.923942C19.8647 0.959716 19.7855 1.09689 19.8212 1.23061L20.4523 3.58574C20.4881 3.71921 20.6253 3.79841 20.759 3.76263L20.7861 3.75523C20.9196 3.71946 20.9991 3.58229 20.963 3.44881L20.3319 1.09344ZM33.5477 50.4148C33.5119 50.2813 33.3747 50.2021 33.241 50.2379L33.2139 50.245C33.0804 50.2808 33.0012 50.418 33.037 50.5517L33.6681 52.9068C33.7038 53.0403 33.841 53.1197 33.9747 53.0837L34.0019 53.0765C34.1353 53.0408 34.2145 52.9036 34.1788 52.7699L33.5477 50.4148ZM18.0994 1.77314C18.0521 1.64312 17.9085 1.57626 17.7787 1.62363L17.7523 1.63324C17.6225 1.68061 17.5554 1.8242 17.6028 1.95397L18.4367 4.24521C18.4841 4.37498 18.6276 4.44209 18.7574 4.39472L18.7838 4.38509C18.9136 4.33772 18.9807 4.19414 18.9333 4.06436L18.0994 1.77314ZM35.5633 49.7548C35.5159 49.625 35.3724 49.5579 35.2426 49.6053L35.2162 49.6149C35.0864 49.6623 35.0193 49.8059 35.0667 49.9356L35.9006 52.2269C35.9479 52.3569 36.0915 52.4237 36.2213 52.3764L36.2477 52.3667C36.3775 52.3194 36.4446 52.1758 36.3972 52.046L35.5633 49.7548ZM15.9348 2.64502C15.8763 2.51969 15.7275 2.46541 15.6022 2.52388L15.5768 2.53573C15.4514 2.5942 15.3974 2.74297 15.4556 2.8683L16.4862 5.07811C16.5446 5.20344 16.6934 5.25772 16.8187 5.19925L16.8441 5.18741C16.9695 5.12894 17.0235 4.98017 16.9653 4.85484L15.9348 2.64502ZM37.5141 48.9219C37.4556 48.7966 37.3068 48.7425 37.1815 48.8008L37.1561 48.8126C37.0308 48.8711 36.9767 49.0198 37.035 49.1452L38.0655 51.355C38.124 51.4803 38.2727 51.5343 38.3981 51.4761L38.4235 51.4643C38.5488 51.4058 38.6028 51.257 38.5446 51.1317L37.5141 48.9219ZM12.839 7.23686C12.9182 7.3501 13.0744 7.37749 13.1876 7.29829L13.2105 7.28225C13.3238 7.20306 13.3512 7.04689 13.272 6.93365L11.8734 4.93625C11.7942 4.82301 11.638 4.79563 11.5247 4.87482L11.5018 4.89086C11.3886 4.97005 11.3612 5.12622 11.4404 5.23947L12.839 7.23686ZM41.161 46.7631C41.0818 46.6499 40.9256 46.6225 40.8124 46.7017L40.7895 46.7177C40.6762 46.7969 40.6488 46.9531 40.728 47.0664L42.1266 49.0637C42.2058 49.177 42.362 49.2046 42.4753 49.1252L42.4982 49.1091C42.6114 49.03 42.6391 48.8738 42.5596 48.7605L41.161 46.7631ZM11.1705 8.54642C11.2593 8.65226 11.4172 8.66608 11.523 8.57726L11.5445 8.55924C11.6503 8.47043 11.6641 8.31254 11.5753 8.20669L10.0079 6.33882C9.91913 6.23298 9.76123 6.21916 9.65539 6.30798L9.63393 6.326C9.52809 6.41481 9.51428 6.5727 9.60309 6.67854L11.1705 8.54642ZM42.8295 45.4538C42.7407 45.348 42.5828 45.3342 42.477 45.423L42.4555 45.441C42.3497 45.5298 42.3359 45.6877 42.4247 45.7936L43.9921 47.6614C44.0809 47.7673 44.2388 47.7811 44.3446 47.6923L44.3661 47.6743C44.4719 47.5854 44.4857 47.4275 44.3969 47.3217L42.8295 45.4538ZM9.62234 9.99611C9.72004 10.0938 9.87867 10.0938 9.97637 9.99611L9.99611 9.97637C10.0938 9.87867 10.0938 9.72003 9.99611 9.62234L8.27207 7.8983C8.17437 7.8006 8.01573 7.8006 7.91804 7.8983L7.8983 7.91803C7.8006 8.01573 7.8006 8.17437 7.8983 8.27207L9.62234 9.99611ZM44.3777 44.0039C44.28 43.9062 44.1213 43.9062 44.0236 44.0039L44.0039 44.0236C43.9062 44.1213 43.9062 44.28 44.0039 44.3777L45.7279 46.1017C45.8256 46.1994 45.9843 46.1994 46.082 46.1017L46.1017 46.0817C46.1994 45.984 46.1994 45.8254 46.1017 45.7277L44.3777 44.0039ZM8.20644 11.5756C8.31228 11.6644 8.47018 11.6506 8.559 11.5447L8.57701 11.5233C8.66582 11.4174 8.65201 11.2595 8.54617 11.1707L6.6783 9.60334C6.57246 9.51452 6.41456 9.52834 6.32574 9.63418L6.30773 9.65565C6.21892 9.76149 6.23273 9.91938 6.33857 10.0082L8.20644 11.5756ZM45.7936 42.4247C45.6877 42.3359 45.5298 42.3497 45.441 42.4555L45.423 42.477C45.3342 42.5828 45.348 42.7407 45.4538 42.8295L47.3217 44.3969C47.4275 44.4857 47.5854 44.4719 47.6743 44.3661L47.6923 44.3446C47.7811 44.2388 47.7673 44.0809 47.6614 43.9921L45.7936 42.4247ZM6.93365 13.2722C7.04689 13.3514 7.20281 13.324 7.28225 13.2108L7.29829 13.1878C7.37749 13.0746 7.3501 12.9184 7.23686 12.8392L5.23946 11.4406C5.12622 11.3614 4.97005 11.3888 4.89086 11.502L4.87482 11.525C4.79563 11.6382 4.82301 11.7944 4.93625 11.8736L6.93365 13.2722ZM47.0663 40.728C46.9531 40.6488 46.7969 40.6762 46.7177 40.7895L46.7017 40.8124C46.6225 40.9256 46.6499 41.0818 46.7631 41.161L48.7605 42.5596C48.8738 42.6388 49.0297 42.6114 49.1091 42.4982L49.1252 42.4753C49.2044 42.362 49.177 42.2058 49.0638 42.1267L47.0663 40.728ZM2.64502 15.9348L4.85484 16.9653C4.98017 17.0238 5.12894 16.9695 5.18741 16.8441L5.19925 16.8187C5.25772 16.6934 5.20345 16.5446 5.07811 16.4862L2.8683 15.4556C2.74297 15.3972 2.5942 15.4514 2.53573 15.5768L2.52388 15.6022C2.46541 15.7273 2.51969 15.8763 2.64502 15.9348ZM51.3552 38.0655L49.1454 37.035C49.0201 36.9765 48.8711 37.0308 48.8128 37.1561L48.801 37.1815C48.7425 37.3068 48.7968 37.4556 48.9221 37.5141L51.1319 38.5446C51.2573 38.6031 51.406 38.5488 51.4645 38.4235L51.4764 38.3981C51.5346 38.2727 51.4806 38.1237 51.3552 38.0655ZM1.77313 18.0994L4.06436 18.9333C4.19438 18.9807 4.33797 18.9136 4.38509 18.7838L4.39471 18.7574C4.44208 18.6274 4.37498 18.4838 4.24521 18.4367L1.95397 17.6028C1.82395 17.5554 1.68037 17.6225 1.63324 17.7523L1.62363 17.7787C1.57626 17.9085 1.64336 18.0523 1.77313 18.0994ZM52.2269 35.9006L49.9356 35.0667C49.8056 35.0193 49.662 35.0864 49.6149 35.2162L49.6053 35.2426C49.5579 35.3724 49.625 35.5162 49.7548 35.5633L52.046 36.3972C52.176 36.4446 52.3196 36.3775 52.3668 36.2477L52.3764 36.2213C52.4238 36.0915 52.3569 35.9479 52.2269 35.9006ZM1.09344 20.3322L3.44857 20.9633C3.58204 20.9991 3.71921 20.9199 3.75523 20.7864L3.76239 20.7592C3.79816 20.6258 3.71897 20.4886 3.5855 20.4526L1.23036 19.8215C1.09689 19.7857 0.959716 19.8649 0.923695 19.9984L0.91654 20.0255C0.880766 20.159 0.959966 20.2962 1.09344 20.3322ZM52.9066 33.6681L50.5514 33.037C50.418 33.0012 50.2805 33.0804 50.2448 33.2139L50.2376 33.241C50.2018 33.3745 50.281 33.5119 50.4145 33.5477L52.7696 34.1788C52.9031 34.2145 53.0405 34.1353 53.0763 34.0019L53.0835 33.9747C53.1195 33.841 53.0403 33.7038 52.9066 33.6681ZM0.610864 22.6153L3.01213 23.0386C3.14832 23.0626 3.27809 22.9718 3.30202 22.8356L3.30695 22.808C3.33089 22.6718 3.2401 22.542 3.10391 22.5181L0.702641 22.0947C0.566455 22.0708 0.436683 22.1616 0.412752 22.2978L0.407819 22.3254C0.383888 22.4616 0.474678 22.5913 0.610864 22.6153ZM53.3891 31.3847L50.9879 30.9614C50.8517 30.9374 50.7219 31.0282 50.698 31.1644L50.693 31.192C50.6691 31.3282 50.7599 31.458 50.8961 31.4819L53.2974 31.9053C53.4335 31.9292 53.5633 31.8384 53.5872 31.7022L53.5922 31.6746C53.6164 31.5387 53.5253 31.4087 53.3891 31.3847ZM0.329119 24.9319L2.75802 25.1443C2.89568 25.1564 3.01707 25.0545 3.02915 24.9169L3.03162 24.889C3.04371 24.7513 2.94181 24.6299 2.80415 24.6179L0.375251 24.4054C0.237585 24.3933 0.116202 24.4952 0.104113 24.6329L0.101643 24.6608C0.089554 24.7984 0.191452 24.9198 0.329119 24.9319ZM53.6709 29.0681L51.242 28.8557C51.1043 28.8436 50.9829 28.9455 50.9708 29.0831L50.9684 29.111C50.9563 29.2487 51.0582 29.3701 51.1959 29.3821L53.6247 29.5946C53.7624 29.6067 53.8838 29.5048 53.8959 29.3671L53.8984 29.3392C53.9105 29.2016 53.8088 29.0802 53.6709 29.0681ZM3.03162 29.111L3.02915 29.0831C3.01707 28.9455 2.89568 28.8436 2.75802 28.8557L0.329119 29.0681C0.191452 29.0802 0.089554 29.2016 0.101643 29.3392L0.104113 29.3671C0.116202 29.5048 0.237585 29.6067 0.375251 29.5946L2.80415 29.3821C2.94181 29.3703 3.04371 29.2489 3.03162 29.111ZM50.9684 24.889L50.9708 24.9169C50.9829 25.0545 51.1043 25.1564 51.242 25.1443L53.6709 24.9319C53.8086 24.9198 53.9105 24.7984 53.8984 24.6608L53.8959 24.6329C53.8838 24.4952 53.7624 24.3933 53.6247 24.4054L51.1959 24.6179C51.0582 24.6299 50.9563 24.7513 50.9684 24.889ZM3.30695 31.192L3.30202 31.1644C3.27809 31.0282 3.14807 30.9374 3.01213 30.9614L0.610864 31.3847C0.474678 31.4087 0.383888 31.5384 0.407819 31.6746L0.412752 31.7022C0.436683 31.8384 0.566455 31.9292 0.702641 31.9053L3.10391 31.4819C3.2401 31.458 3.33089 31.3282 3.30695 31.192ZM50.6933 22.808L50.6982 22.8356C50.7222 22.9718 50.8519 23.0626 50.9881 23.0386L53.3894 22.6153C53.5256 22.5913 53.6164 22.4613 53.5924 22.3254L53.5875 22.2978C53.5636 22.1616 53.4338 22.0708 53.2976 22.0947L50.8963 22.5181C50.7602 22.542 50.6691 22.672 50.6933 22.808ZM3.76239 33.241L3.75523 33.2139C3.71946 33.0804 3.58229 33.0012 3.44857 33.037L1.09344 33.6681C0.959966 33.7038 0.880766 33.841 0.91654 33.9747L0.923695 34.0019C0.959469 34.1353 1.09664 34.2145 1.23036 34.1788L3.5855 33.5477C3.71897 33.5119 3.79816 33.3747 3.76239 33.241ZM50.2376 20.759L50.2448 20.7861C50.2805 20.9196 50.4177 20.9988 50.5514 20.963L52.9066 20.3319C53.04 20.2962 53.1192 20.159 53.0835 20.0253L53.0763 19.9981C53.0405 19.8647 52.9034 19.7855 52.7696 19.8212L50.4145 20.4523C50.281 20.4884 50.2018 20.6255 50.2376 20.759ZM4.39471 35.2426L4.38509 35.2162C4.33772 35.0864 4.19414 35.0193 4.06436 35.0667L1.77313 35.9006C1.64311 35.9479 1.57626 36.0915 1.62363 36.2213L1.63324 36.2477C1.68061 36.3775 1.8242 36.4446 1.95397 36.3972L4.24521 35.5633C4.37523 35.5162 4.44208 35.3726 4.39471 35.2426ZM49.6053 18.7574L49.6149 18.7838C49.6623 18.9136 49.8059 18.9807 49.9356 18.9333L52.2269 18.0994C52.3569 18.0521 52.4238 17.9085 52.3764 17.7787L52.3668 17.7523C52.3194 17.6225 52.1758 17.5554 52.046 17.6028L49.7548 18.4367C49.625 18.4841 49.5579 18.6276 49.6053 18.7574ZM5.19925 37.1815L5.18741 37.1561C5.12894 37.0308 4.98017 36.9765 4.85484 37.035L2.64502 38.0655C2.51969 38.124 2.46566 38.2727 2.52388 38.3981L2.53573 38.4235C2.5942 38.5488 2.74297 38.6031 2.8683 38.5446L5.07811 37.5141C5.20345 37.4556 5.25772 37.3066 5.19925 37.1815ZM48.801 16.8187L48.8128 16.8441C48.8713 16.9695 49.0201 17.0238 49.1454 16.9653L51.3552 15.9348C51.4806 15.8763 51.5346 15.7275 51.4764 15.6022L51.4645 15.5768C51.406 15.4514 51.2573 15.3972 51.1319 15.4556L48.9221 16.4862C48.7968 16.5444 48.7425 16.6934 48.801 16.8187ZM7.29829 40.8124L7.28225 40.7895C7.20306 40.6762 7.04689 40.6486 6.93365 40.728L4.93625 42.1267C4.82301 42.2058 4.79563 42.362 4.87482 42.4753L4.89086 42.4982C4.97005 42.6114 5.12622 42.6388 5.23946 42.5596L7.23686 41.161C7.3501 41.0818 7.37773 40.9256 7.29829 40.8124ZM46.7017 13.1876L46.7177 13.2105C46.7969 13.3238 46.9531 13.3512 47.0663 13.272L49.0638 11.8734C49.177 11.7942 49.2046 11.638 49.1252 11.5247L49.1091 11.5018C49.03 11.3886 48.8738 11.3609 48.7605 11.4404L46.7631 12.839C46.6499 12.9184 46.6225 13.0744 46.7017 13.1876ZM8.57725 42.477L8.55924 42.4555C8.47043 42.3497 8.31253 42.3359 8.20669 42.4247L6.33882 43.9921C6.23298 44.0809 6.21916 44.2388 6.30798 44.3446L6.32599 44.3661C6.41481 44.4719 6.5727 44.4857 6.67854 44.3969L8.54641 42.8295C8.65226 42.7407 8.66607 42.5828 8.57725 42.477ZM45.423 11.523L45.441 11.5445C45.5298 11.6503 45.6877 11.6641 45.7936 11.5753L47.6614 10.008C47.7673 9.91914 47.7811 9.76124 47.6923 9.6554L47.6743 9.63393C47.5854 9.52809 47.4275 9.51427 47.3217 9.60309L45.4538 11.1705C45.348 11.2593 45.3342 11.4172 45.423 11.523ZM9.99611 44.0236L9.97637 44.0039C9.87867 43.9062 9.72004 43.9062 9.62234 44.0039L7.8983 45.7279C7.8006 45.8256 7.8006 45.9843 7.8983 46.082L7.91804 46.102C8.01573 46.1996 8.17437 46.1996 8.27207 46.102L9.99611 44.3779C10.0941 44.28 10.0941 44.1216 9.99611 44.0236ZM44.0039 9.97637L44.0236 9.99611C44.1213 10.0938 44.28 10.0938 44.3777 9.99611L46.1017 8.27207C46.1994 8.17437 46.1994 8.01573 46.1017 7.91803L46.082 7.8983C45.9843 7.8006 45.8256 7.8006 45.7279 7.8983L44.0039 9.62234C43.9062 9.72003 43.9062 9.87867 44.0039 9.97637ZM11.5447 45.441L11.5233 45.423C11.4174 45.3342 11.2595 45.348 11.1707 45.4538L9.60334 47.3217C9.51452 47.4275 9.52834 47.5854 9.63418 47.6743L9.65564 47.6923C9.76148 47.7811 9.91938 47.7673 10.0082 47.6614L11.5756 45.7936C11.6644 45.6877 11.6506 45.5298 11.5447 45.441ZM42.4555 8.55924L42.477 8.57726C42.5828 8.66608 42.7407 8.65226 42.8295 8.54642L44.3969 6.67854C44.4857 6.5727 44.4719 6.41481 44.3661 6.326L44.3446 6.30798C44.2388 6.21916 44.0809 6.23298 43.9921 6.33882L42.4247 8.20669C42.3359 8.31254 42.3497 8.47043 42.4555 8.55924ZM13.2108 46.7177L13.1878 46.7017C13.0746 46.6225 12.9184 46.6499 12.8392 46.7631L11.4406 48.7605C11.3614 48.8738 11.3888 49.03 11.502 49.1091L11.525 49.1252C11.6382 49.2044 11.7944 49.177 11.8736 49.0637L13.2722 47.0664C13.3514 46.9531 13.324 46.7972 13.2108 46.7177ZM40.7895 7.28225L40.8124 7.29829C40.9256 7.37749 41.0818 7.3501 41.161 7.23686L42.5596 5.23947C42.6388 5.12622 42.6114 4.97005 42.4982 4.89086L42.4753 4.87482C42.362 4.79563 42.2058 4.82301 42.1266 4.93625L40.728 6.93365C40.6486 7.04689 40.6762 7.20306 40.7895 7.28225ZM16.8441 48.8128L16.8187 48.801C16.6934 48.7425 16.5446 48.7968 16.4862 48.9221L15.4556 51.132C15.3972 51.2573 15.4514 51.406 15.5768 51.4645L15.6022 51.4764C15.7275 51.5348 15.8763 51.4806 15.9348 51.3552L16.9653 49.1454C17.0235 49.0201 16.9695 48.8711 16.8441 48.8128ZM37.1561 5.18741L37.1815 5.19925C37.3068 5.25772 37.4556 5.20344 37.5141 5.07811L38.5446 2.8683C38.6031 2.74297 38.5488 2.5942 38.4235 2.53573L38.3981 2.52388C38.2727 2.46541 38.124 2.51969 38.0655 2.64502L37.035 4.85484C36.9765 4.97992 37.0308 5.12894 37.1561 5.18741ZM18.7838 49.6149L18.7574 49.6053C18.6276 49.5579 18.4838 49.625 18.4367 49.7548L17.6028 52.046C17.5554 52.1758 17.6225 52.3196 17.7523 52.3667L17.7787 52.3764C17.9087 52.4237 18.0523 52.3566 18.0994 52.2269L18.9333 49.9356C18.9807 49.8059 18.9138 49.6623 18.7838 49.6149ZM36.2477 1.63324L36.2213 1.62363C36.0915 1.57626 35.9477 1.64336 35.9006 1.77314L35.0667 4.06436C35.0193 4.19438 35.0864 4.33797 35.2162 4.38509L35.2426 4.39472C35.3726 4.44209 35.5162 4.37498 35.5633 4.24521L36.3972 1.95397C36.4446 1.8242 36.3777 1.68037 36.2477 1.63324ZM20.7861 50.245L20.759 50.2379C20.6255 50.2021 20.4884 50.2813 20.4523 50.4148L19.8212 52.7699C19.7855 52.9034 19.8647 53.0408 19.9981 53.0765L20.0253 53.0837C20.1587 53.1195 20.2959 53.0403 20.3319 52.9068L20.963 50.5517C20.9988 50.418 20.9196 50.2808 20.7861 50.245ZM34.0016 0.923695L33.9745 0.916299C33.841 0.880525 33.7038 0.959719 33.6678 1.09319L33.0367 3.44832C33.0009 3.58179 33.0801 3.71896 33.2136 3.75474L33.2408 3.76214C33.3742 3.79791 33.5114 3.71872 33.5474 3.58525L34.1785 1.23012C34.2145 1.09665 34.1353 0.959469 34.0016 0.923695ZM22.8358 50.698L22.8082 50.693C22.672 50.6691 22.5423 50.7599 22.5183 50.8961L22.095 53.2974C22.071 53.4335 22.1618 53.5633 22.298 53.5872L22.3256 53.5922C22.4618 53.6161 22.5916 53.5253 22.6155 53.3891L23.0389 50.9879C23.0628 50.8519 22.9718 50.7222 22.8358 50.698ZM31.7025 0.412752L31.6749 0.407819C31.5387 0.383888 31.4089 0.474678 31.385 0.610864L30.9616 3.01213C30.9377 3.14832 31.0285 3.27809 31.1647 3.30202L31.1923 3.30695C31.3285 3.33089 31.4582 3.2401 31.4822 3.10391L31.9055 0.702641C31.9295 0.566455 31.8384 0.436683 31.7025 0.412752ZM24.9169 50.9709L24.889 50.9684C24.7513 50.9563 24.6299 51.0582 24.6179 51.1958L24.4054 53.6247C24.3933 53.7624 24.4952 53.8838 24.6329 53.8959L24.6608 53.8984C24.7985 53.9104 24.9198 53.8086 24.9319 53.6709L25.1443 51.242C25.1567 51.1043 25.0548 50.9829 24.9169 50.9709ZM29.3673 0.104113L29.3395 0.101649C29.2018 0.08956 29.0804 0.191452 29.0683 0.329119L28.8559 2.75802C28.8438 2.89568 28.9457 3.01707 29.0834 3.02915L29.1113 3.03162C29.2489 3.04371 29.3703 2.94182 29.3824 2.80415L29.5948 0.375251C29.6069 0.237585 29.505 0.116202 29.3673 0.104113Z" fill="currentColor"/>
	</symbol>
	<symbol viewBox="0 0 74 87" fill="none" id="icon-dial-half">
		<path d="M28.5071 5.06574L27.6683 2.79994L28.122 2.62885L28.9608 4.89465L28.5071 5.06574ZM25.0517 6.58381L23.9837 4.41905L23.5501 4.63722L24.6182 6.80238L25.0517 6.58381ZM21.3384 8.67742L20.0527 6.63708L19.644 6.90019L20.9298 8.94093L21.3384 8.67742ZM17.8631 11.1525L16.3737 9.25843L15.9946 9.56317L17.484 11.4568L17.8631 11.1525ZM11.7728 17.135L9.92704 15.5951L9.61928 15.9731L11.465 17.513L11.7728 17.135ZM9.22481 20.5765L7.23042 19.2404L6.96368 19.6489L8.95807 20.9851L9.22481 20.5765ZM7.04725 24.2697L4.92588 23.1512L4.70229 23.5855L6.82327 24.7041L7.04725 24.2697ZM5.26305 28.1729L3.03859 27.285L2.86128 27.7408L5.08575 28.6287L5.26305 28.1729ZM2.95062 36.4396L0.592846 36.0382L0.5134 36.5217L2.87107 36.9227L2.95062 36.4396ZM2.44726 40.7117L0.0611926 40.5622L0.0319296 41.0513L2.4181 41.2011L2.44726 40.7117ZM2.38799 45.0146L0 45.1183L0.0216644 45.6077L2.40976 45.5044L2.38799 45.0146ZM2.77359 49.3006L0.409817 49.6561L0.481868 50.1404L2.84563 49.7849L2.77359 49.3006ZM4.85819 57.6358L2.62002 58.4813L2.78975 58.9401L5.02803 58.0951L4.85819 57.6358ZM6.53381 61.5938L4.39587 62.6712L4.6121 63.1099L6.75044 62.0324L6.53381 61.5938ZM8.60947 65.3534L6.59475 66.6509L6.85527 67.064L8.87028 65.766L8.60947 65.3534ZM11.0612 68.8737L9.19192 70.3779L9.49364 70.7615L11.3629 69.2573L11.0612 68.8737ZM16.9843 75.0445L15.4656 76.9097L15.8397 77.2216L17.3584 75.3564L16.9843 75.0445ZM69.0055 11.9547L70.5245 10.0904L70.1499 9.77809L68.6306 11.643L69.0055 11.9547ZM20.3905 77.6277L19.0729 79.6432L19.4773 79.9141L20.7949 77.8986L20.3905 77.6277ZM65.5995 9.37194L66.9167 7.35687L66.5123 7.08596L65.1944 9.10163L65.5995 9.37194ZM24.0442 79.8371L22.9423 81.981L23.372 82.2079L24.4737 80.0636L24.0442 79.8371ZM61.9462 7.1624L63.0476 5.01862L62.6172 4.79194L61.515 6.93632L61.9462 7.1624ZM27.9054 81.6479L27.0314 83.897L27.4822 84.0771L28.3561 81.8276L27.9054 81.6479ZM58.0844 5.3513L58.9586 3.10266L58.5073 2.92265L57.6327 5.1727L58.0844 5.3513ZM36.0804 84.0006L35.6877 86.3852L36.1655 86.4669L36.5576 84.082L36.0804 84.0006ZM49.9103 2.9984L50.3022 0.614415L49.8242 0.533264L49.4313 2.91836L49.9103 2.9984ZM40.304 84.5171L40.16 86.9308L40.6435 86.9612L40.787 84.5476L40.304 84.5171ZM45.6864 2.48242L45.83 0.0692014L45.3465 0.0388111L45.2023 2.45303L45.6864 2.48242ZM44.5569 84.584L44.6636 87L45.1473 86.9789L45.0406 84.5629L44.5569 84.584ZM41.433 2.41557L41.3265 0L40.8424 0.0212368L40.9479 2.43751L41.433 2.41557ZM48.7926 84.2004L49.1482 86.5923L49.6272 86.52L49.2717 84.1282L48.7926 84.2004ZM37.1972 2.79881L36.8419 0.407738L36.3623 0.479665L36.7176 2.87203L37.1972 2.79881ZM52.0821 80.9006L53.5583 86.6591L54.4965 86.4143L53.0203 80.6559L52.0821 80.9006ZM33.9078 6.09857L32.4316 0.340146L31.4934 0.584892L32.9695 6.34332L33.9078 6.09857ZM16.0135 15.0234L13.1586 12.0842L12.4677 12.7709L15.3227 15.7101L16.0135 15.0234ZM5.57645 32.4641L1.65363 31.3605L1.39525 32.3048L5.31806 33.4084L5.57645 32.4641ZM6.04039 52.6334L0.350858 54.1176L0.594279 55.0672L6.28381 53.583L6.04039 52.6334ZM71.0993 16.2489L74 13.3653L73.3201 12.6653L70.4198 15.5488L71.0993 16.2489ZM14.891 70.7506L11.99 73.6347L12.67 74.3347L15.5707 71.4511L14.891 70.7506ZM53.8433 5.66149L54.9279 1.69459L53.9936 1.43177L52.909 5.39868L53.8433 5.66149ZM32.1466 81.3381L31.062 85.305L31.9959 85.5679L33.0804 81.6006L32.1466 81.3381Z" fill="currentColor"/>
	</symbol>
	<symbol fill="none" viewBox="0 0 22 20" id="icon-heart">
		<path stroke="#ededeb" stroke-linecap="round" stroke-linejoin="round" d="M10.993 3.219C8.993.88 5.66.253 3.155 2.393s-2.858 5.719-.89 8.25c1.635 2.105 6.585 6.544 8.207 7.98.182.162.272.242.378.273a.504.504 0 0 0 .286 0c.106-.031.197-.111.378-.272 1.623-1.437 6.573-5.876 8.208-7.98 1.967-2.532 1.658-6.133-.89-8.251-2.549-2.118-5.84-1.512-7.839.826Z" clip-rule="evenodd"/>
	</symbol>
	<symbol fill="none" viewBox="0 0 20 18" id="icon-profile">
		<path stroke="#ededeb" stroke-linecap="round" stroke-linejoin="round" d="M1.325 17.5c2.336-2.477 5.507-4 9-4 3.493 0 6.664 1.523 9 4M14.825 5a4.5 4.5 0 1 1-9 0 4.5 4.5 0 0 1 9 0Z"/>
	</symbol>
	<symbol fill="none" viewBox="0 0 20 20" id="icon-search">
		<path stroke="#ededeb" stroke-linecap="round" stroke-linejoin="round" d="m19 19-4.35-4.35M9 4a5 5 0 0 1 5 5m3 0A8 8 0 1 1 1 9a8 8 0 0 1 16 0Z"/>
	</symbol>
</svg>
