<svg version="1.1" xmlns="http://www.w3.org/2000/svg">
	<symbol fill="none" viewBox="0 0 83 76" id="icon-arrow-dial">
		<path fill="#f14d4d" d="M51.095 38.354a.5.5 0 0 0 0-.707l-3.182-3.182a.5.5 0 1 0-.707.707L50.034 38l-2.828 2.828a.5.5 0 0 0 .707.707l3.182-3.181ZM.483 38.5h50.259v-1H.483v1Z"/>
		<path fill="currentColor" d="M45.17.441v5.564a.441.441 0 0 1-.44.441h-.286a.441.441 0 0 1-.442-.441V.44c0-.243.198-.441.442-.441H44.73c.243 0 .44.198.44.441Zm-.44 69.113h-.286a.442.442 0 0 0-.442.441v5.564c0 .243.198.441.442.441H44.73a.441.441 0 0 0 .441-.441v-5.564a.442.442 0 0 0-.442-.441Zm-16.658-58.97a.442.442 0 0 0 .603.16l.247-.142a.441.441 0 0 0 .162-.603L26.3 5.181a.442.442 0 0 0-.603-.161l-.107.061-.017.01-.123.071a.441.441 0 0 0-.162.603l2.784 4.819Zm33.03 54.832a.442.442 0 0 0-.604-.16l-.247.142a.441.441 0 0 0-.162.603l2.784 4.818a.442.442 0 0 0 .604.161l.123-.071.017-.01.107-.061a.441.441 0 0 0 .161-.603l-2.784-4.819Zm-49.357-45.69 4.822 2.782c.21.122.48.05.603-.161l.142-.247a.441.441 0 0 0-.161-.603l-4.822-2.782a.442.442 0 0 0-.603.162l-.061.106-.02.034-.061.107a.441.441 0 0 0 .161.602Zm65.683 36.548-4.821-2.782a.442.442 0 0 0-.603.161l-.143.247a.441.441 0 0 0 .161.603l4.822 2.782c.211.122.481.05.603-.162l.08-.139.002-.001.061-.106a.441.441 0 0 0-.162-.603Zm4.743-18.858h-5.567a.441.441 0 0 0-.442.442v.285c0 .243.198.44.442.44h5.567a.442.442 0 0 0 .442-.44V37.856a.441.441 0 0 0-.442-.44ZM17.312 53.9l-.142-.246a.442.442 0 0 0-.604-.162l-4.82 2.782a.441.441 0 0 0-.162.603l.142.247a.442.442 0 0 0 .603.161l4.822-2.782a.441.441 0 0 0 .162-.603Zm54.549-31.8.142.246a.442.442 0 0 0 .604.162l4.821-2.782a.441.441 0 0 0 .162-.603l-.062-.106-.019-.033-.062-.108a.442.442 0 0 0-.603-.161l-4.822 2.782a.441.441 0 0 0-.161.603ZM28.922 65.398l-.247-.143a.442.442 0 0 0-.603.162l-2.784 4.818a.441.441 0 0 0 .162.602l.106.062.017.01.124.07c.211.123.481.05.603-.16L29.084 66a.44.44 0 0 0-.162-.602Zm31.329-54.795.247.142c.211.122.481.05.603-.161l2.784-4.818a.441.441 0 0 0-.161-.603l-.124-.071-.017-.01-.106-.061a.442.442 0 0 0-.604.161L60.09 10a.44.44 0 0 0 .162.603ZM41.292.143l-.04.004a.352.352 0 0 0-.32.381l.3 3.419a.352.352 0 0 0 .382.32l.039-.004a.352.352 0 0 0 .32-.381l-.3-3.419a.352.352 0 0 0-.38-.32Zm6.268 71.59-.04.004a.352.352 0 0 0-.32.381l.3 3.419a.352.352 0 0 0 .381.32l.04-.004a.352.352 0 0 0 .32-.381l-.3-3.419a.352.352 0 0 0-.381-.32ZM38.003.574l-.039.007a.352.352 0 0 0-.286.408l.596 3.38c.034.191.217.319.409.285l.038-.007a.352.352 0 0 0 .287-.408L38.41.86a.352.352 0 0 0-.408-.285ZM50.49 71.346l-.04.007a.352.352 0 0 0-.285.408l.596 3.38c.034.191.216.32.408.285l.04-.007a.352.352 0 0 0 .285-.408l-.596-3.38a.352.352 0 0 0-.408-.285ZM35.195 1.54a.353.353 0 0 0-.431-.249l-.039.01a.352.352 0 0 0-.249.432l.889 3.315c.05.187.243.299.432.249l.038-.01c.188-.051.3-.244.25-.432l-.89-3.315Zm18.613 69.415a.353.353 0 0 0-.432-.249l-.038.01a.352.352 0 0 0-.249.432l.889 3.314c.05.188.243.3.432.25l.038-.01c.188-.051.3-.244.25-.432l-.89-3.315ZM32.051 2.496a.352.352 0 0 0-.452-.21l-.037.013a.352.352 0 0 0-.21.451l1.174 3.225a.353.353 0 0 0 .452.21l.037-.013a.352.352 0 0 0 .21-.452l-1.174-3.224Zm24.596 67.53a.352.352 0 0 0-.452-.211l-.037.013a.352.352 0 0 0-.21.452l1.174 3.224a.352.352 0 0 0 .452.21l.037-.013a.352.352 0 0 0 .21-.451l-1.174-3.225ZM29.002 3.722a.352.352 0 0 0-.468-.17l-.036.016a.352.352 0 0 0-.17.468l1.451 3.11a.352.352 0 0 0 .468.17l.036-.016a.352.352 0 0 0 .17-.468l-1.45-3.11Zm30.393 65.13a.353.353 0 0 0-.469-.17l-.036.016a.352.352 0 0 0-.17.468l1.451 3.11a.353.353 0 0 0 .468.17l.036-.016a.352.352 0 0 0 .17-.468l-1.45-3.11ZM24.642 10.185c.112.16.332.198.491.087l.033-.023a.352.352 0 0 0 .086-.49l-1.97-2.812a.353.353 0 0 0-.49-.086l-.033.022a.352.352 0 0 0-.086.491l1.97 2.811Zm39.889 55.63a.353.353 0 0 0-.491-.087l-.033.023a.352.352 0 0 0-.086.49l1.97 2.812c.111.16.331.198.49.086l.033-.022a.352.352 0 0 0 .087-.491l-1.97-2.811ZM22.292 12.028a.353.353 0 0 0 .497.044l.03-.026a.352.352 0 0 0 .044-.496l-2.208-2.629a.353.353 0 0 0-.496-.043l-.03.025a.352.352 0 0 0-.044.496l2.207 2.63Zm44.589 51.944a.353.353 0 0 0-.497-.043l-.03.025a.352.352 0 0 0-.043.496l2.207 2.63a.353.353 0 0 0 .496.043l.03-.026a.352.352 0 0 0 .044-.496l-2.207-2.629ZM20.112 14.07a.353.353 0 0 0 .499 0l.027-.028a.352.352 0 0 0 0-.498l-2.428-2.427a.353.353 0 0 0-.498 0l-.028.028a.352.352 0 0 0 0 .498l2.428 2.427Zm48.95 47.862a.353.353 0 0 0-.5 0l-.027.028a.352.352 0 0 0 0 .498l2.428 2.427a.353.353 0 0 0 .498 0l.028-.028a.352.352 0 0 0 0-.498l-2.428-2.427Zm-50.944-45.64a.353.353 0 0 0 .497-.043l.025-.03a.352.352 0 0 0-.044-.496l-2.63-2.206a.353.353 0 0 0-.497.043l-.025.03a.352.352 0 0 0 .043.497l2.631 2.205ZM71.055 59.71a.353.353 0 0 0-.496.043l-.026.03a.352.352 0 0 0 .044.497l2.63 2.205c.15.125.372.106.497-.043l.025-.03a.352.352 0 0 0-.043-.496l-2.63-2.206Zm-54.73-41.03c.16.112.38.073.491-.086l.023-.032a.352.352 0 0 0-.087-.491l-2.813-1.968a.353.353 0 0 0-.49.086l-.023.032a.352.352 0 0 0 .086.491l2.813 1.968Zm56.523 38.642a.353.353 0 0 0-.491.086l-.023.033a.352.352 0 0 0 .087.49l2.813 1.969c.16.111.379.073.49-.087l.023-.032a.352.352 0 0 0-.086-.49l-2.813-1.97ZM10.285 22.427l3.113 1.45a.352.352 0 0 0 .468-.17l.017-.036a.352.352 0 0 0-.17-.468l-3.113-1.45a.352.352 0 0 0-.469.17l-.016.036a.352.352 0 0 0 .17.468Zm68.603 31.147-3.112-1.45a.352.352 0 0 0-.468.17l-.017.036a.352.352 0 0 0 .17.468l3.113 1.45a.352.352 0 0 0 .468-.17l.017-.036a.352.352 0 0 0-.17-.468Zm-69.83-28.1 3.226 1.173a.352.352 0 0 0 .452-.21l.014-.038a.352.352 0 0 0-.211-.451l-3.227-1.174a.352.352 0 0 0-.452.21l-.013.038a.352.352 0 0 0 .21.451Zm71.058 25.053-3.227-1.174a.352.352 0 0 0-.452.21l-.013.038a.352.352 0 0 0 .21.451l3.227 1.174a.352.352 0 0 0 .452-.21l.013-.038a.352.352 0 0 0-.21-.451Zm.957-3.142-3.317-.889a.353.353 0 0 0-.432.25l-.01.038a.352.352 0 0 0 .25.431l3.316.888a.353.353 0 0 0 .432-.248l.01-.039a.352.352 0 0 0-.249-.431Zm.68-3.214-3.382-.596a.352.352 0 0 0-.408.286l-.007.039a.352.352 0 0 0 .286.408l3.382.596a.352.352 0 0 0 .408-.286l.007-.039a.352.352 0 0 0-.286-.408Zm.397-3.26-3.421-.3a.353.353 0 0 0-.382.32l-.004.04a.352.352 0 0 0 .32.382l3.422.299a.352.352 0 0 0 .381-.32l.004-.04a.352.352 0 0 0-.32-.381Zm-3.807-5.882.004.04a.353.353 0 0 0 .382.32l3.42-.3a.352.352 0 0 0 .32-.381l-.003-.04a.352.352 0 0 0-.381-.32l-3.421.3a.352.352 0 0 0-.32.381Zm-.387-2.929.007.039c.034.192.216.32.408.286l3.382-.596a.352.352 0 0 0 .286-.408l-.007-.039a.352.352 0 0 0-.408-.286l-3.382.596a.352.352 0 0 0-.286.408ZM11.859 46.784l-.01-.039a.352.352 0 0 0-.432-.248l-3.317.888a.352.352 0 0 0-.249.431l.01.038c.05.188.244.3.432.25l3.317-.889c.188-.05.3-.243.249-.431Zm65.455-17.568.01.039c.05.187.244.299.432.248l3.317-.888c.188-.05.3-.243.25-.431l-.01-.039a.352.352 0 0 0-.433-.248l-3.317.888a.353.353 0 0 0-.249.431ZM12.75 49.601l-.014-.038a.353.353 0 0 0-.452-.21l-3.227 1.174a.352.352 0 0 0-.21.451l.013.037a.353.353 0 0 0 .452.21l3.227-1.173a.352.352 0 0 0 .21-.451Zm63.674-23.202.013.037a.353.353 0 0 0 .452.21l3.227-1.173a.352.352 0 0 0 .21-.451l-.013-.037a.353.353 0 0 0-.452-.21l-3.227 1.173a.352.352 0 0 0-.21.451ZM13.883 52.33l-.017-.035a.352.352 0 0 0-.468-.17l-3.113 1.45a.352.352 0 0 0-.17.468l.016.035a.352.352 0 0 0 .469.171l3.112-1.45a.352.352 0 0 0 .17-.468ZM75.29 23.672l.017.036a.352.352 0 0 0 .468.17l3.112-1.45a.352.352 0 0 0 .17-.468l-.016-.036a.352.352 0 0 0-.468-.17l-3.112 1.45a.352.352 0 0 0-.171.468ZM16.839 57.44l-.023-.033a.352.352 0 0 0-.49-.086l-2.814 1.968a.352.352 0 0 0-.086.491l.022.032c.112.16.332.198.491.087l2.813-1.969a.352.352 0 0 0 .087-.49Zm55.495-38.88.023.033c.111.159.331.198.49.086l2.814-1.968a.352.352 0 0 0 .086-.491l-.022-.032a.352.352 0 0 0-.491-.087L72.42 18.07a.352.352 0 0 0-.087.49ZM18.64 59.782l-.025-.03a.353.353 0 0 0-.497-.043l-2.63 2.206a.352.352 0 0 0-.044.496l.026.03a.353.353 0 0 0 .496.043l2.63-2.205a.352.352 0 0 0 .044-.497Zm51.893-43.564.026.03a.353.353 0 0 0 .496.043l2.63-2.206a.352.352 0 0 0 .044-.496l-.025-.03a.353.353 0 0 0-.497-.043l-2.63 2.205a.352.352 0 0 0-.044.497ZM20.638 61.959l-.027-.028a.353.353 0 0 0-.499 0l-2.428 2.427a.352.352 0 0 0 0 .498l.028.028a.353.353 0 0 0 .498 0l2.428-2.426a.352.352 0 0 0 0-.499Zm47.897-47.918.028.028a.353.353 0 0 0 .498 0l2.428-2.427a.352.352 0 0 0 0-.498l-.028-.028a.353.353 0 0 0-.498 0l-2.428 2.427a.352.352 0 0 0 0 .498ZM22.82 63.954l-.03-.025a.353.353 0 0 0-.497.043l-2.208 2.629a.352.352 0 0 0 .044.496l.03.026c.15.124.372.105.497-.044l2.207-2.629a.352.352 0 0 0-.043-.496Zm43.534-51.908.03.026c.15.125.372.105.497-.044L69.088 9.4a.352.352 0 0 0-.043-.496l-.03-.025a.353.353 0 0 0-.497.043l-2.207 2.63a.352.352 0 0 0 .043.495ZM25.166 65.751l-.032-.023a.353.353 0 0 0-.491.087l-1.97 2.81a.352.352 0 0 0 .087.492l.032.022c.16.112.38.073.49-.086l1.97-2.811a.352.352 0 0 0-.086-.491Zm38.841-55.502.033.023c.16.111.38.073.49-.087l1.97-2.81a.352.352 0 0 0-.086-.492l-.032-.022a.353.353 0 0 0-.491.086l-1.97 2.811a.352.352 0 0 0 .086.491ZM30.283 68.7l-.036-.016a.352.352 0 0 0-.468.17l-1.451 3.11a.352.352 0 0 0 .17.469l.036.016a.352.352 0 0 0 .468-.17l1.452-3.11a.352.352 0 0 0-.17-.468ZM58.89 7.302l.036.016a.352.352 0 0 0 .468-.17l1.452-3.11a.352.352 0 0 0-.17-.468l-.037-.017a.352.352 0 0 0-.468.17l-1.451 3.11a.352.352 0 0 0 .17.469ZM33.015 69.828l-.037-.013a.352.352 0 0 0-.452.21l-1.174 3.225a.352.352 0 0 0 .21.451l.037.014a.352.352 0 0 0 .452-.21l1.175-3.225a.352.352 0 0 0-.211-.452Zm24.596-67.53-.037-.013a.352.352 0 0 0-.452.21L55.948 5.72a.352.352 0 0 0 .21.452l.037.013a.352.352 0 0 0 .452-.21l1.175-3.225a.352.352 0 0 0-.211-.451ZM35.835 70.716l-.038-.01a.353.353 0 0 0-.432.25l-.889 3.314a.352.352 0 0 0 .25.431l.038.01a.353.353 0 0 0 .431-.249l.89-3.314a.352.352 0 0 0-.25-.432ZM54.448 1.3l-.039-.01a.353.353 0 0 0-.431.249l-.89 3.314c-.05.188.062.381.25.431l.038.01a.353.353 0 0 0 .432-.248l.889-3.315a.352.352 0 0 0-.25-.431ZM38.722 71.353l-.04-.007a.352.352 0 0 0-.407.285l-.597 3.38a.352.352 0 0 0 .286.408l.04.007a.352.352 0 0 0 .408-.286l.596-3.38a.353.353 0 0 0-.286-.407ZM51.209.58l-.038-.007a.352.352 0 0 0-.409.286l-.596 3.38a.352.352 0 0 0 .286.407l.039.007a.352.352 0 0 0 .408-.286l.596-3.38a.352.352 0 0 0-.285-.407Zm-9.556 71.156-.04-.004a.352.352 0 0 0-.381.32l-.3 3.419a.352.352 0 0 0 .32.382l.04.003a.352.352 0 0 0 .382-.32l.3-3.419a.352.352 0 0 0-.321-.381ZM47.92.147l-.04-.004a.352.352 0 0 0-.381.32l-.3 3.419a.352.352 0 0 0 .32.381l.04.004a.352.352 0 0 0 .382-.32l.3-3.419a.352.352 0 0 0-.321-.381Z"/>
	</symbol>
	<symbol fill="none" viewBox="0 0 20 22" id="icon-cart">
		<path stroke="#ededeb" stroke-linecap="round" stroke-linejoin="round" d="M14.162 8V5a4 4 0 0 0-8 0v3M1.754 9.352l-.6 6.4c-.17 1.82-.255 2.73.047 3.432a3 3 0 0 0 1.32 1.45C3.192 21 4.106 21 5.934 21h8.457c1.828 0 2.742 0 3.414-.366a3 3 0 0 0 1.32-1.45c.301-.703.216-1.612.046-3.432l-.6-6.4c-.145-1.537-.217-2.305-.562-2.886a3 3 0 0 0-1.292-1.176C16.107 5 15.335 5 13.791 5H6.534c-1.544 0-2.316 0-2.926.29a3 3 0 0 0-1.292 1.176c-.345.581-.417 1.35-.562 2.886Z"/>
	</symbol>
	<symbol fill="none" viewBox="0 0 22 20" id="icon-heart">
		<path stroke="#ededeb" stroke-linecap="round" stroke-linejoin="round" d="M10.993 3.219C8.993.88 5.66.253 3.155 2.393s-2.858 5.719-.89 8.25c1.635 2.105 6.585 6.544 8.207 7.98.182.162.272.242.378.273a.504.504 0 0 0 .286 0c.106-.031.197-.111.378-.272 1.623-1.437 6.573-5.876 8.208-7.98 1.967-2.532 1.658-6.133-.89-8.251-2.549-2.118-5.84-1.512-7.839.826Z" clip-rule="evenodd"/>
	</symbol>
	<symbol fill="none" viewBox="0 0 20 18" id="icon-profile">
		<path stroke="#ededeb" stroke-linecap="round" stroke-linejoin="round" d="M1.325 17.5c2.336-2.477 5.507-4 9-4 3.493 0 6.664 1.523 9 4M14.825 5a4.5 4.5 0 1 1-9 0 4.5 4.5 0 0 1 9 0Z"/>
	</symbol>
	<symbol fill="none" viewBox="0 0 20 20" id="icon-search">
		<path stroke="#ededeb" stroke-linecap="round" stroke-linejoin="round" d="m19 19-4.35-4.35M9 4a5 5 0 0 1 5 5m3 0A8 8 0 1 1 1 9a8 8 0 0 1 16 0Z"/>
	</symbol>
</svg>
